HIERARCHY
ROOT Hips
{
  OFFSET 74.0196 97.4445 -31.1285
  CHANNELS 6 Xposition Yposition Zposition Zrotation Xrotation Yrotation
  JOINT RightUpLeg
  {
    OFFSET -8.9458 -8.66707 0.101652
    CHANNELS 3 Zrotation Xrotation Yrotation
    JOINT RightLeg
    {
      OFFSET -2.94875e-013 -44.4227 1.3727
      CHANNELS 3 Zrotation Xrotation Yrotation
      JOINT RightFoot
      {
        OFFSET 0.253549 -42.0924 -1.46059
        CHANNELS 3 Zrotation Xrotation Yrotation
        JOINT RightToes
        {
          OFFSET 0.04 -4.41509 8.4991
          CHANNELS 3 Zrotation Xrotation Yrotation
          End Site
          {
            OFFSET -0.08 -0.137448 9.77979
          }
        }
      }
    }
  }
  JOINT Spine
  {
    OFFSET -5.68434e-014 11.8905 -6.39488e-014
    CHANNELS 3 Zrotation Xrotation Yrotation
    JOINT Spine1
    {
      OFFSET 5.68434e-014 25.6574 0.127663
      CHANNELS 3 Zrotation Xrotation Yrotation
      JOINT HEad
      {
        OFFSET 4.26326e-014 8.73416 0.011341
        CHANNELS 3 Zrotation Xrotation Yrotation
        End Site
        {
          OFFSET -0.29 12.7742 2.51395
        }
      }
      JOINT LeftShoulder1
      {
        OFFSET 8.99 -0.362252 -0.22
        CHANNELS 3 Zrotation Xrotation Yrotation
        JOINT LeftArm
        {
          OFFSET 10.2827 -0.00338 0.322123
          CHANNELS 3 Zrotation Xrotation Yrotation
          JOINT LeftForeArm
          {
            OFFSET 32.7669 0.099144 -1.42434
            CHANNELS 3 Zrotation Xrotation Yrotation
            JOINT LeftHand
            {
              OFFSET 27.5643 0.085362 1.02216
              CHANNELS 3 Zrotation Xrotation Yrotation
              End Site
              {
                OFFSET 16.7443 -0.6 1.50291
              }
            }
          }
        }
      }
      JOINT RightShoulder
      {
        OFFSET -8.99 -0.362252 -0.22
        CHANNELS 3 Zrotation Xrotation Yrotation
        JOINT RightArm
        {
          OFFSET -10.2827 -0.00338 0.322123
          CHANNELS 3 Zrotation Xrotation Yrotation
          JOINT RightForeArm
          {
            OFFSET -32.8971 0.099144 -1.42434
            CHANNELS 3 Zrotation Xrotation Yrotation
            JOINT RightHand
            {
              OFFSET -27.4921 0.085362 1.02216
              CHANNELS 3 Zrotation Xrotation Yrotation
              End Site
              {
                OFFSET -16.6312 -0.6 1.50291
              }
            }
          }
        }
      }
    }
  }
  JOINT LeftUpLeg
  {
    OFFSET 8.9458 -8.66707 0.101652
    CHANNELS 3 Zrotation Xrotation Yrotation
    JOINT LeftLeg
    {
      OFFSET 7.10543e-014 -44.4227 1.3727
      CHANNELS 3 Zrotation Xrotation Yrotation
      JOINT LeftFoot
      {
        OFFSET -0.253549 -42.0924 -1.46059
        CHANNELS 3 Zrotation Xrotation Yrotation
        JOINT LeftToes
        {
          OFFSET -0.04 -4.41509 8.4991
          CHANNELS 3 Zrotation Xrotation Yrotation
          End Site
          {
            OFFSET 0.08 -0.047448 9.77979
          }
        }
      }
    }
  }
}
MOTION
Frames:	20
Frame Time:	0.0166667
7.08348 88.5559 -89.1702 -2.21706 -2.49197 23.7162 -15.0323 -33.6457 2.83019 3.10915 33.5911 2.73674 10.8586 12.175 -1.91831 -9.09164 -27.5894 -2.5092 0.389774 5.50619 0.450764 -6.28338 9.72324 2.1196 19.5294 7.04922 -16.7285 -5.03302e-021 -3.88251e-019 1.21329e-020 -64.3111 5.57221 -49.9454 -11.6103 38.046 -108.432 6.54677 9.62745 -1.04006 22.5753 -2.68252 -13.2645 66.2018 -30.5468 49.533 -16.0687 25.9866 110.1 -15.9757 10.6741 -10.1918 19.0182 1.5918 -12.8641 -19.6559 38.7453 24.4812 -0.547875 21.1151 -0.00552217 56.2186 -46.7916 51.9042 
8.73502 88.5159 -87.8101 -2.49544 -1.61229 17.6487 -12.6336 -34.5518 4.26745 0.610575 32.1461 7.69188 11.7581 14.487 -2.29589 -10.2379 -34.446 -0.983173 0.563961 4.90587 0.525504 -5.56687 8.45853 2.24681 16.6568 8.32754 -12.5344 -5.03302e-021 -3.88251e-019 1.21329e-020 -64.7772 1.2019 -49.1063 -12.2643 38.4058 -107.285 6.54677 9.62745 -1.04006 21.6079 -2.3567 -12.3287 67.6463 -26.5423 51.1504 -13.0626 27.5954 109.724 -19.4621 10.0328 -5.1365 16.8966 2.91215 -12.6321 -22.0886 39.4228 28.4987 -0.456735 20.4964 -0.0270424 51.8275 -44.3189 49.6627 
10.3914 88.4858 -86.4224 -2.82943 -0.801125 12.0426 -10.7361 -35.1682 5.05078 -1.09837 30.565 12.4302 12.764 15.8569 -2.63474 -10.5927 -39.1002 0.618254 0.835583 4.42039 0.0707643 -4.39575 7.538 1.29858 13.4806 9.34621 -7.22355 -5.03302e-021 -3.88251e-019 1.21329e-020 -65.4189 -4.03626 -49.0845 -13.1733 38.4454 -104.453 6.54677 9.62745 -1.04006 20.7501 -2.07761 -11.478 70.7522 -23.8703 52.3505 -11.7089 31.7412 113.52 -21.4447 9.39342 -1.50859 14.9652 3.89031 -11.9441 -24.3459 40.0657 31.8735 -0.359388 19.7651 -0.0487336 46.9946 -42.6836 45.5992 
12.0001 88.454 -85.0617 -3.17962 -0.11802 7.31781 -9.3659 -35.5734 5.09435 -2.25462 29.2296 16.759 13.6745 16.3815 -2.88207 -10.461 -41.7045 1.98254 1.18291 4.09925 -0.953765 -2.95482 7.01863 -0.806163 10.3035 10.137 -1.04112 -5.03302e-021 -3.88251e-019 1.21329e-020 -66.051 -9.7345 -50.3881 -13.9145 37.5417 -99.4385 6.54677 9.62745 -1.04006 20.0406 -1.84462 -10.7174 70.2148 -17.7654 52.0951 -12.3977 30.8528 119.31 -20.8652 9.4052 -1.49309 13.3648 4.53794 -11.0095 -26.2817 40.7885 34.3503 -0.150234 19.0609 -0.0952457 42.273 -42.0433 40.0004 
13.5456 88.4064 -83.7755 -3.50294 0.423984 3.66463 -8.48545 -35.8359 4.64488 -3.08815 28.3378 20.4066 14.3036 16.3832 -3.01536 -10.3195 -42.9833 2.74806 1.5685 3.94653 -2.45315 -1.45651 6.84318 -3.8776 7.28869 10.7941 5.64989 -5.03302e-021 -3.88251e-019 1.21329e-020 -64.1763 -13.5893 -53.177 -13.0625 32.6104 -92.6057 6.54677 9.62745 -1.04006 19.427 -1.63275 -9.97375 68.5738 -11.0614 51.9403 -15.2835 27.3307 127.075 -18.04 10.0434 -5.27575 12.1807 4.92879 -10.0323 -27.9174 41.6204 35.9731 0.294401 18.3219 -0.192122 37.9933 -42.1869 33.5657 
15.047 88.3348 -82.584 -3.7363 0.856775 1.02642 -8.06794 -36.0191 4.06305 -3.71461 27.8979 23.1724 14.52 16.2223 -3.04182 -10.5412 -43.7324 2.69458 1.95032 3.92299 -4.21259 -0.086026 6.8816 -7.48133 4.40488 11.3477 12.4395 -5.03302e-021 -3.88251e-019 1.21329e-020 -55.2228 -12.802 -56.4194 -9.82952 19.6175 -83.7169 6.54677 9.62745 -1.04006 18.775 -1.41438 -9.17082 65.996 -4.29468 52.5546 -19.3145 20.4677 134.594 -12.7931 10.7239 -12.2313 11.4188 5.15612 -9.14756 -29.3577 42.4774 37.0305 1.05712 17.3151 -0.348965 34.286 -42.5777 27.3084 
16.538 88.2406 -81.472 -3.79214 1.23308 -0.855989 -8.10441 -36.189 3.63545 -4.15964 27.8128 25.0582 14.2982 16.113 -2.98225 -11.2449 -44.4215 1.84887 2.28127 3.96328 -5.95497 1.01599 6.98931 -11.0525 1.53512 11.6832 18.9264 -5.03302e-021 -3.88251e-019 1.21329e-020 -43.1919 -10.7958 -58.9755 -5.81159 4.83121 -71.4976 6.54677 9.62745 -1.04006 17.9243 -1.17772 -8.288 63.0826 1.50644 54.2458 -23.4052 11.2789 139.95 -5.37969 10.5556 -20.6119 11.0065 5.31177 -8.41362 -30.7043 43.1891 37.924 2.12625 15.7552 -0.542748 31.142 -42.6261 22.0893 
18.0426 88.1348 -80.4002 -3.57511 1.58698 -2.3383 -8.57676 -36.3968 3.48404 -4.4491 27.9587 26.2853 13.7398 16.0797 -2.86165 -12.3068 -45.1336 0.465503 2.50064 4.00334 -7.41134 1.74158 7.06201 -14.0402 -1.34673 11.6088 24.7274 -5.03302e-021 -3.88251e-019 1.21329e-020 -32.6233 -9.10321 -60.2065 -1.66178 -6.70921 -57.9204 6.54677 9.62745 -1.04006 16.7458 -0.926239 -7.34204 60.8829 5.05378 56.6595 -26.9279 2.61516 142.634 2.59986 9.21142 -28.0134 10.8285 5.48668 -7.85078 -32.0004 43.5598 39.0174 3.37801 13.4594 -0.716409 28.4559 -41.9589 18.2519 
19.5572 88.0341 -79.3311 -3.01578 1.89598 -3.71858 -9.44541 -36.6438 3.54769 -4.67245 28.2286 27.2009 13.0301 16.042 -2.70952 -13.4741 -45.7779 -1.08052 2.53666 4.00748 -8.38013 2.00477 7.07124 -16.0308 -4.09028 11.0249 29.4729 -5.03302e-021 -3.88251e-019 1.21329e-020 -26.9978 -8.02282 -60.1634 1.84161 -12.8897 -47.367 6.54677 9.62745 -1.04006 15.1803 -0.669337 -6.34014 60.5663 5.43145 58.9369 -29.4385 -2.4981 143.418 8.87659 7.47534 -32.9053 10.7871 5.76594 -7.49379 -33.1986 43.4552 40.5061 4.61435 10.4696 -0.806072 26.1044 -40.5422 15.662 
21.0479 87.955 -78.2529 -2.11024 2.07334 -5.09086 -10.6647 -36.8559 3.63067 -4.96154 28.56 28.1072 12.3395 15.9097 -2.55246 -14.5128 -46.288 -2.45757 2.33015 3.98288 -8.76589 1.74884 7.0666 -16.8271 -6.41954 10.0415 32.8379 -5.03302e-021 -3.88251e-019 1.21329e-020 -26.8368 -7.06043 -59.3264 3.95942 -15.5378 -43.4749 6.54677 9.62745 -1.04006 13.2754 -0.419714 -5.27193 62.5866 2.55565 60.3672 -30.6499 -2.84709 143.264 12.1104 6.36556 -35.2738 10.862 6.19445 -7.41849 -34.1537 42.8892 42.3312 5.64941 7.086 -0.783764 24.0571 -38.6818 13.969 
22.4635 87.9083 -77.1895 -0.942943 2.0148 -6.29008 -12.2069 -36.8994 3.52679 -5.38898 28.9538 29.0723 11.7161 15.6227 -2.39619 -15.3234 -46.6524 -3.5313 1.86396 3.97345 -8.58824 0.963299 7.14341 -16.4647 -8.04678 8.93876 34.5948 -5.03302e-021 -3.88251e-019 1.21329e-020 -31.5587 -6.08261 -57.8711 4.13104 -15.9216 -47.553 6.54677 9.62745 -1.04006 11.2272 -0.19628 -4.15026 66.267 -3.07414 60.7546 -30.6867 0.776311 142.478 12.1273 6.31916 -35.6189 11.1459 6.72257 -7.72543 -34.6709 42.0491 44.1925 6.40658 3.81066 -0.679787 22.4578 -36.9463 12.8679 
23.7532 87.8935 -76.1891 0.335346 1.67538 -6.97414 -14.0689 -36.6325 3.15689 -5.8708 29.465 29.8456 11.0546 15.1689 -2.22055 -15.9762 -46.888 -4.41338 1.17292 4.03918 -7.95344 -0.306893 7.40025 -15.1539 -8.76249 7.99655 34.6295 -5.03302e-021 -3.88251e-019 1.21329e-020 -40.7083 -5.81061 -55.4024 1.73802 -12.2399 -58.6877 6.54677 9.62745 -1.04006 9.40054 -0.0228072 -3.07868 70.3075 -10.887 60.1499 -29.8754 6.7094 140.864 9.37822 7.2209 -34.2568 11.8298 7.17449 -8.49529 -34.5969 41.2126 45.6865 6.95975 1.20919 -0.56252 21.5998 -36.0061 12.2445 
24.8795 87.8972 -75.3007 1.56787 1.10795 -6.79504 -16.2429 -35.9528 2.62015 -6.16965 30.1629 29.9591 10.1848 14.6097 -2.00092 -16.6688 -47.071 -5.37266 0.32646 4.23601 -7.00158 -1.96768 7.91519 -13.1757 -8.4788 7.3242 32.9138 -5.03302e-021 -3.88251e-019 1.21329e-020 -53.1425 -7.3941 -51.448 -2.58154 -2.10455 -73.0527 6.54677 9.62745 -1.04006 8.26485 0.0812989 -2.29337 73.4346 -20.4242 58.5439 -28.4318 13.4386 138.186 4.61238 8.63163 -31.361 13.1331 7.27496 -9.74438 -33.8862 40.597 46.4953 7.47445 -0.279798 -0.49678 21.7799 -36.3749 12.1678 
25.8202 87.8961 -74.5535 2.64189 0.432247 -5.54595 -18.6694 -34.8153 2.13378 -5.99859 31.0845 28.9456 9.00959 14.0748 -1.73384 -17.629 -47.3646 -6.67061 -0.599008 4.60336 -5.85844 -3.89239 8.74158 -10.7866 -7.24261 6.82195 29.4841 -5.03302e-021 -3.88251e-019 1.21329e-020 -65.877 -11.0926 -46.2964 -7.39025 13.2536 -85.7282 6.54677 9.62745 -1.04006 8.21114 0.102329 -2.11355 74.6106 -31.1805 55.7504 -26.4505 20.0269 134.241 -1.33946 10.0215 -27.1482 15.2056 6.7211 -11.3971 -32.6112 40.2408 46.4997 8.09199 -0.508387 -0.519331 23.1211 -38.122 12.7908 
26.5653 87.8626 -73.947 3.49513 -0.222733 -3.20647 -21.2138 -33.2325 1.91637 -5.13954 32.2059 26.5178 7.56884 13.7069 -1.43887 -19.0252 -47.9627 -8.44457 -1.53946 5.15462 -4.61265 -5.9393 9.90015 -8.17615 -5.22211 6.29391 24.4661 -5.03302e-021 -3.88251e-019 1.21329e-020 -75.2798 -15.293 -40.8567 -12.0448 29.274 -94.2879 6.54677 9.62745 -1.04006 9.35619 0.0134737 -2.79426 72.7827 -42.3392 51.1609 -23.9657 26.0251 128.674 -7.78996 10.9734 -21.871 18.0596 5.2536 -13.2788 -30.9312 39.9884 45.7494 8.85893 0.322855 -0.636713 25.4401 -40.721 14.2203 
27.1167 87.7719 -73.4537 4.09258 -0.751868 0.102629 -23.6916 -31.2752 2.06626 -3.52432 33.4453 22.6533 6.00263 13.5955 -1.14225 -20.9272 -48.989 -10.693 -2.44726 5.86936 -3.3218 -7.96685 11.3608 -5.47786 -2.65582 5.61117 18.1224 -5.03302e-021 -3.88251e-019 1.21329e-020 -77.5238 -14.6062 -36.0307 -14.9516 38.3189 -100.231 6.54677 9.62745 -1.04006 11.4995 -0.235161 -4.37917 66.2236 -52.4464 43.1144 -20.9456 31.0339 120.832 -14.276 11.2315 -15.6859 21.5617 2.70269 -15.1327 -29.0551 39.566 44.3361 9.72589 1.70684 -0.823087 28.1349 -43.1599 16.3127 
27.5003 87.6025 -73.029 4.4012 -1.08032 4.19045 -25.9224 -29.0648 2.47959 -1.27559 34.6939 17.6167 4.48491 13.7493 -0.866539 -23.3125 -50.4566 -13.3163 -3.27896 6.69516 -2.03936 -9.84497 13.0342 -2.81517 0.220599 4.80086 10.8769 -5.03302e-021 -3.88251e-019 1.21329e-020 -74.9658 -8.94736 -32.8997 -14.7458 40.5222 -106.066 6.54677 9.62745 -1.04006 14.2391 -0.684547 -6.6567 52.6926 -58.9765 29.0129 -17.3458 34.2969 109.942 -20.4464 10.6368 -8.62617 25.4701 -0.975433 -16.6598 -27.1948 38.698 42.2825 10.5381 2.9278 -1.00929 30.105 -44.2829 18.4309 
27.7852 87.3338 -72.6232 4.37981 -1.17041 8.83251 -27.7768 -26.7447 2.87791 1.31308 35.8586 11.9208 3.17595 14.1038 -0.630351 -26.0864 -52.2774 -16.1668 -3.97642 7.56053 -0.839615 -11.4618 14.7879 -0.341483 3.2245 4.02095 3.29088 -5.03302e-021 -3.88251e-019 1.21329e-020 -71.6021 -2.94558 -31.8196 -13.0688 41.006 -111.185 6.54677 9.62745 -1.04006 17.1194 -1.31501 -9.23065 34.3716 -45.4737 11.7167 -12.4668 20.7735 90.6148 -24.4709 9.29819 -1.41666 29.492 -5.64249 -17.5792 -25.4995 37.2045 39.5418 10.9914 3.19985 -1.07918 29.981 -43.1501 19.5114 
28.0956 86.9473 -72.1939 3.99354 -1.04072 13.7558 -29.1996 -24.4425 2.97739 3.88967 36.8861 6.19595 2.18577 14.5279 -0.448356 -29.0745 -54.2473 -19.078 -4.46341 8.38916 0.186848 -12.7323 16.4797 1.76471 6.22285 3.46865 -4.01565 -5.03302e-021 -3.88251e-019 1.21329e-020 -67.9641 2.65295 -32.6894 -11.0086 40.4767 -115.173 6.54677 9.62745 -1.04006 19.746 -2.02888 -11.6618 28.886 -22.4056 4.3131 -11.1018 -0.835031 69.5918 -26.4698 7.33249 7.00786 33.3453 -10.9099 -17.7087 -23.9908 35.0372 36.1332 10.6532 1.90173 -0.918795 26.9465 -39.2424 18.777 
28.5971 86.4294 -71.7198 3.24651 -0.779014 18.6107 -30.2079 -22.2481 2.69917 6.19783 37.7503 1.01025 1.54731 14.8208 -0.327299 -31.972 -56.0186 -21.841 -4.66457 9.10916 0.968824 -13.6111 17.9871 3.35329 9.08477 3.29346 -10.4836 -5.03302e-021 -3.88251e-019 1.21329e-020 -64.5112 7.29993 -35.0516 -9.2818 39.6521 -117.851 6.54677 9.62745 -1.04006 21.8785 -2.69745 -13.6335 30.9662 0.111488 0.186536 -13.2956 -20.8487 48.7124 -27.1924 4.9724 16.5743 36.8085 -16.1371 -17.0478 -22.5466 32.2446 32.2989 9.15426 -1.02386 -0.54191 21.6021 -32.7136 16.5382 
